ffmpeg started on 2016-12-12 at 03:11:21
Report written to "Output/theora/results/ffmpeg/Tsintel3000k.log"
Command line:
Tools/ffmpeg/ffmpeg -i Output/theora/encoded/sintel3000k.mkv -c:v rawvideo -pix_fmt yuv420p Output/theora/transcoded/sintel3000k.yuv
ffmpeg version N-82227-gdb23fde Copyright (c) 2000-2016 the FFmpeg developers
  built with gcc 5.4.0 (Ubuntu 5.4.0-6ubuntu1~16.04.2) 20160609
  configuration: --prefix=/home/jaroslav/ffmpeg_build --pkg-config-flags=--static --extra-cflags=-I/home/jaroslav/ffmpeg_build/include --extra-ldflags=-L/home/jaroslav/ffmpeg_build/lib --bindir=/home/jaroslav/bin --enable-gpl --enable-libass --enable-libfdk-aac --enable-libfreetype --enable-libmp3lame --enable-libopus --enable-libtheora --enable-libvorbis --enable-libvpx --enable-libx264 --enable-libx265 --enable-nvenc --enable-libmfx --enable-libxvid --enable-libgsm --enable-libopencore-amrnb --enable-version3 --enable-nonfree
  libavutil      55. 35.100 / 55. 35.100
  libavcodec     57. 66.101 / 57. 66.101
  libavformat    57. 57.100 / 57. 57.100
  libavdevice    57.  2.100 / 57.  2.100
  libavfilter     6. 66.100 /  6. 66.100
  libswscale      4.  3.100 /  4.  3.100
  libswresample   2.  4.100 /  2.  4.100
  libpostproc    54.  2.100 / 54.  2.100
Input #0, matroska,webm, from 'Output/theora/encoded/sintel3000k.mkv':
  Metadata:
    ENCODER         : Lavf57.57.100
  Duration: 00:00:20.83, start: 0.000000, bitrate: 3285 kb/s
    Stream #0:0: Video: theora, yuv420p(progressive), 4096x1744 [SAR 1:1 DAR 256:109], 24 fps, 24 tbr, 1k tbn, 24 tbc (default)
    Metadata:
      ENCODER         : Lavc57.66.101 libtheora
      DURATION        : 00:00:20.834000000
Output #0, rawvideo, to 'Output/theora/transcoded/sintel3000k.yuv':
  Metadata:
    encoder         : Lavf57.57.100
    Stream #0:0: Video: rawvideo (I420 / 0x30323449), yuv420p, 4096x1744 [SAR 1:1 DAR 256:109], q=2-31, 200 kb/s, 24 fps, 24 tbn, 24 tbc (default)
    Metadata:
      DURATION        : 00:00:20.834000000
      encoder         : Lavc57.66.101 rawvideo
Stream mapping:
  Stream #0:0 -> #0:0 (theora (native) -> rawvideo (native))
Press [q] to stop, [?] for help
frame=   20 fps=0.0 q=-0.0 size=  209280kB time=00:00:00.83 bitrate=2057306.9kbits/s speed=1.66x    frame=   43 fps= 41 q=-0.0 size=  449952kB time=00:00:01.79 bitrate=2057305.7kbits/s dup=3 drop=0 speed=1.72x    frame=   65 fps= 42 q=-0.0 size=  680160kB time=00:00:02.70 bitrate=2057306.4kbits/s dup=16 drop=0 speed=1.74x    frame=   85 fps= 41 q=-0.0 size=  889440kB time=00:00:03.54 bitrate=2057305.9kbits/s dup=25 drop=0 speed=1.71x    frame=  106 fps= 41 q=-0.0 size= 1109184kB time=00:00:04.41 bitrate=2057306.0kbits/s dup=36 drop=0 speed=1.71x    frame=  130 fps= 41 q=-0.0 size= 1360320kB time=00:00:05.41 bitrate=2057306.0kbits/s dup=50 drop=0 speed=1.72x    frame=  153 fps= 41 q=-0.0 size= 1600992kB time=00:00:06.37 bitrate=2057306.1kbits/s dup=66 drop=0 speed=1.72x    frame=  174 fps= 41 q=-0.0 size= 1820736kB time=00:00:07.25 bitrate=2057306.1kbits/s dup=78 drop=0 speed=1.72x    frame=  185 fps= 39 q=-0.0 size= 1935840kB time=00:00:07.70 bitrate=2057306.2kbits/s dup=84 drop=0 speed=1.63x    frame=  207 fps= 39 q=-0.0 size= 2166048kB time=00:00:08.62 bitrate=2057306.1kbits/s dup=96 drop=0 speed=1.64x    frame=  231 fps= 39 q=-0.0 size= 2417184kB time=00:00:09.62 bitrate=2057306.1kbits/s dup=111 drop=0 speed=1.64x    frame=  254 fps= 40 q=-0.0 size= 2657856kB time=00:00:10.58 bitrate=2057306.2kbits/s dup=127 drop=0 speed=1.65x    frame=  277 fps= 39 q=-0.0 size= 2898528kB time=00:00:11.54 bitrate=2057306.1kbits/s dup=141 drop=0 speed=1.65x    frame=  301 fps= 40 q=-0.0 size= 3149664kB time=00:00:12.54 bitrate=2057306.1kbits/s dup=153 drop=0 speed=1.65x    frame=  318 fps= 39 q=-0.0 size= 3327552kB time=00:00:13.25 bitrate=2057306.1kbits/s dup=156 drop=0 speed=1.63x    frame=  337 fps= 39 q=-0.0 size= 3526368kB time=00:00:14.04 bitrate=2057306.1kbits/s dup=163 drop=0 speed=1.63x    frame=  354 fps= 39 q=-0.0 size= 3704256kB time=00:00:14.75 bitrate=2057306.1kbits/s dup=167 drop=0 speed=1.61x    frame=  372 fps= 39 q=-0.0 size= 3892608kB time=00:00:15.50 bitrate=2057306.1kbits/s dup=171 drop=0 speed= 1.6x    frame=  387 fps= 38 q=-0.0 size= 4049568kB time=00:00:16.12 bitrate=2057306.1kbits/s dup=174 drop=0 speed=1.56x    frame=  407 fps= 37 q=-0.0 size= 4258848kB time=00:00:16.95 bitrate=2057306.2kbits/s dup=183 drop=0 speed=1.55x    frame=  425 fps= 37 q=-0.0 size= 4447200kB time=00:00:17.70 bitrate=2057306.2kbits/s dup=190 drop=0 speed=1.55x    frame=  442 fps= 37 q=-0.0 size= 4625088kB time=00:00:18.41 bitrate=2057306.1kbits/s dup=196 drop=0 speed=1.54x    frame=  462 fps= 37 q=-0.0 size= 4834368kB time=00:00:19.25 bitrate=2057306.1kbits/s dup=203 drop=0 speed=1.55x    frame=  470 fps= 36 q=-0.0 size= 4918080kB time=00:00:19.58 bitrate=2057306.1kbits/s dup=203 drop=0 speed=1.51x    frame=  488 fps= 36 q=-0.0 size= 5106432kB time=00:00:20.33 bitrate=2057306.1kbits/s dup=208 drop=0 speed=1.51x    frame=  500 fps= 36 q=-0.0 Lsize= 5232000kB time=00:00:20.83 bitrate=2057306.1kbits/s dup=210 drop=0 speed= 1.5x    
video:5232000kB audio:0kB subtitle:0kB other streams:0kB global headers:0kB muxing overhead: 0.000000%
